<mxfile host="app.diagrams.net" modified="2023-12-11T17:39:55.858Z" agent="Mozilla/5.0 (Windows NT 10.0; Win64; x64) AppleWebKit/537.36 (KHTML, like Gecko) Chrome/119.0.0.0 Safari/537.36" etag="WSGumseGectMcasDqvWH" version="22.1.7" type="device">
  <diagram name="PÃ gina-1" id="8abpHyJs1kc1G5gvocYW">
    <mxGraphModel dx="819" dy="426" grid="1" gridSize="10" guides="1" tooltips="1" connect="1" arrows="1" fold="1" page="1" pageScale="1" pageWidth="827" pageHeight="1169" math="0" shadow="0">
      <root>
        <mxCell id="0" />
        <mxCell id="1" parent="0" />
        <mxCell id="pSaJIkGriDd8Vi6PSLmC-13" value="" style="edgeStyle=orthogonalEdgeStyle;rounded=0;orthogonalLoop=1;jettySize=auto;html=1;entryX=0;entryY=0.106;entryDx=0;entryDy=0;entryPerimeter=0;" parent="1" source="pSaJIkGriDd8Vi6PSLmC-1" target="pSaJIkGriDd8Vi6PSLmC-53" edge="1">
          <mxGeometry relative="1" as="geometry">
            <mxPoint x="280" y="100" as="targetPoint" />
            <Array as="points">
              <mxPoint x="220" y="100" />
            </Array>
          </mxGeometry>
        </mxCell>
        <mxCell id="pSaJIkGriDd8Vi6PSLmC-20" value="Vs" style="edgeLabel;html=1;align=center;verticalAlign=middle;resizable=0;points=[];" parent="pSaJIkGriDd8Vi6PSLmC-13" vertex="1" connectable="0">
          <mxGeometry x="-0.1833" y="1" relative="1" as="geometry">
            <mxPoint x="9" as="offset" />
          </mxGeometry>
        </mxCell>
        <mxCell id="pSaJIkGriDd8Vi6PSLmC-1" value="APPS1" style="rounded=0;whiteSpace=wrap;html=1;" parent="1" vertex="1">
          <mxGeometry x="60" y="50" width="120" height="60" as="geometry" />
        </mxCell>
        <mxCell id="pSaJIkGriDd8Vi6PSLmC-2" value="APPS2" style="rounded=0;whiteSpace=wrap;html=1;" parent="1" vertex="1">
          <mxGeometry x="60" y="130" width="120" height="60" as="geometry" />
        </mxCell>
        <mxCell id="pSaJIkGriDd8Vi6PSLmC-3" value="Brake Sensor" style="rounded=0;whiteSpace=wrap;html=1;" parent="1" vertex="1">
          <mxGeometry x="60" y="210" width="120" height="60" as="geometry" />
        </mxCell>
        <mxCell id="pSaJIkGriDd8Vi6PSLmC-4" value="Steering Sensor" style="rounded=0;whiteSpace=wrap;html=1;" parent="1" vertex="1">
          <mxGeometry x="60" y="290" width="120" height="60" as="geometry" />
        </mxCell>
        <mxCell id="pSaJIkGriDd8Vi6PSLmC-5" value="Susp F L" style="rounded=0;whiteSpace=wrap;html=1;" parent="1" vertex="1">
          <mxGeometry x="60" y="370" width="120" height="60" as="geometry" />
        </mxCell>
        <mxCell id="pSaJIkGriDd8Vi6PSLmC-6" value="Susp F R" style="rounded=0;whiteSpace=wrap;html=1;" parent="1" vertex="1">
          <mxGeometry x="60" y="450" width="120" height="60" as="geometry" />
        </mxCell>
        <mxCell id="pSaJIkGriDd8Vi6PSLmC-8" value="&lt;h1&gt;&lt;font style=&quot;font-size: 31px;&quot; face=&quot;Courier New&quot;&gt;ETRX_FECU&lt;/font&gt;&lt;/h1&gt;" style="text;html=1;strokeColor=none;fillColor=none;align=center;verticalAlign=middle;whiteSpace=wrap;rounded=0;" parent="1" vertex="1">
          <mxGeometry x="610" y="20" width="210" height="60" as="geometry" />
        </mxCell>
        <mxCell id="pSaJIkGriDd8Vi6PSLmC-51" value="Fuse" style="rounded=0;whiteSpace=wrap;html=1;" parent="1" vertex="1">
          <mxGeometry x="260" y="50" width="50" height="20" as="geometry" />
        </mxCell>
        <mxCell id="pSaJIkGriDd8Vi6PSLmC-53" value="Shield&lt;br&gt;Pin headers" style="rounded=0;whiteSpace=wrap;html=1;" parent="1" vertex="1">
          <mxGeometry x="390" y="50" width="120" height="470" as="geometry" />
        </mxCell>
        <mxCell id="pSaJIkGriDd8Vi6PSLmC-72" value="" style="endArrow=classic;html=1;rounded=0;exitX=1;exitY=0.25;exitDx=0;exitDy=0;entryX=-0.008;entryY=0.617;entryDx=0;entryDy=0;entryPerimeter=0;" parent="1" target="pSaJIkGriDd8Vi6PSLmC-53" edge="1">
          <mxGeometry width="50" height="50" relative="1" as="geometry">
            <mxPoint x="180" y="340" as="sourcePoint" />
            <mxPoint x="386" y="340" as="targetPoint" />
          </mxGeometry>
        </mxCell>
        <mxCell id="pSaJIkGriDd8Vi6PSLmC-102" value="Vs" style="edgeLabel;html=1;align=center;verticalAlign=middle;resizable=0;points=[];" parent="pSaJIkGriDd8Vi6PSLmC-72" vertex="1" connectable="0">
          <mxGeometry x="-0.056" relative="1" as="geometry">
            <mxPoint as="offset" />
          </mxGeometry>
        </mxCell>
        <mxCell id="pSaJIkGriDd8Vi6PSLmC-74" value="" style="endArrow=none;html=1;rounded=0;entryX=0;entryY=0.5;entryDx=0;entryDy=0;exitX=0.998;exitY=0.17;exitDx=0;exitDy=0;exitPerimeter=0;" parent="1" source="pSaJIkGriDd8Vi6PSLmC-1" target="pSaJIkGriDd8Vi6PSLmC-51" edge="1">
          <mxGeometry width="50" height="50" relative="1" as="geometry">
            <mxPoint x="280" y="270" as="sourcePoint" />
            <mxPoint x="330" y="220" as="targetPoint" />
          </mxGeometry>
        </mxCell>
        <mxCell id="pSaJIkGriDd8Vi6PSLmC-75" value="" style="endArrow=none;html=1;rounded=0;exitX=1;exitY=0.5;exitDx=0;exitDy=0;entryX=-0.001;entryY=0.021;entryDx=0;entryDy=0;entryPerimeter=0;" parent="1" source="pSaJIkGriDd8Vi6PSLmC-51" target="pSaJIkGriDd8Vi6PSLmC-53" edge="1">
          <mxGeometry width="50" height="50" relative="1" as="geometry">
            <mxPoint x="310" y="110" as="sourcePoint" />
            <mxPoint x="360" y="60" as="targetPoint" />
          </mxGeometry>
        </mxCell>
        <mxCell id="pSaJIkGriDd8Vi6PSLmC-76" value="+5V" style="edgeLabel;html=1;align=center;verticalAlign=middle;resizable=0;points=[];" parent="pSaJIkGriDd8Vi6PSLmC-75" vertex="1" connectable="0">
          <mxGeometry x="-0.0803" relative="1" as="geometry">
            <mxPoint as="offset" />
          </mxGeometry>
        </mxCell>
        <mxCell id="pSaJIkGriDd8Vi6PSLmC-77" value="" style="endArrow=none;html=1;rounded=0;exitX=1;exitY=0.5;exitDx=0;exitDy=0;" parent="1" source="pSaJIkGriDd8Vi6PSLmC-1" edge="1">
          <mxGeometry width="50" height="50" relative="1" as="geometry">
            <mxPoint x="280" y="110" as="sourcePoint" />
            <mxPoint x="390" y="80" as="targetPoint" />
          </mxGeometry>
        </mxCell>
        <mxCell id="pSaJIkGriDd8Vi6PSLmC-79" value="GND" style="edgeLabel;html=1;align=center;verticalAlign=middle;resizable=0;points=[];" parent="pSaJIkGriDd8Vi6PSLmC-77" vertex="1" connectable="0">
          <mxGeometry x="-0.1414" relative="1" as="geometry">
            <mxPoint x="10" as="offset" />
          </mxGeometry>
        </mxCell>
        <mxCell id="pSaJIkGriDd8Vi6PSLmC-80" value="" style="edgeStyle=orthogonalEdgeStyle;rounded=0;orthogonalLoop=1;jettySize=auto;html=1;entryX=0;entryY=0.106;entryDx=0;entryDy=0;entryPerimeter=0;" parent="1" edge="1">
          <mxGeometry relative="1" as="geometry">
            <mxPoint x="180" y="180" as="sourcePoint" />
            <mxPoint x="390" y="180" as="targetPoint" />
            <Array as="points">
              <mxPoint x="220" y="180" />
            </Array>
          </mxGeometry>
        </mxCell>
        <mxCell id="pSaJIkGriDd8Vi6PSLmC-81" value="Vs" style="edgeLabel;html=1;align=center;verticalAlign=middle;resizable=0;points=[];" parent="pSaJIkGriDd8Vi6PSLmC-80" vertex="1" connectable="0">
          <mxGeometry x="-0.1833" y="1" relative="1" as="geometry">
            <mxPoint x="9" as="offset" />
          </mxGeometry>
        </mxCell>
        <mxCell id="pSaJIkGriDd8Vi6PSLmC-82" value="Fuse" style="rounded=0;whiteSpace=wrap;html=1;" parent="1" vertex="1">
          <mxGeometry x="260" y="130" width="50" height="20" as="geometry" />
        </mxCell>
        <mxCell id="pSaJIkGriDd8Vi6PSLmC-83" value="" style="endArrow=none;html=1;rounded=0;entryX=0;entryY=0.5;entryDx=0;entryDy=0;exitX=0.998;exitY=0.17;exitDx=0;exitDy=0;exitPerimeter=0;" parent="1" target="pSaJIkGriDd8Vi6PSLmC-82" edge="1">
          <mxGeometry width="50" height="50" relative="1" as="geometry">
            <mxPoint x="180" y="140" as="sourcePoint" />
            <mxPoint x="330" y="300" as="targetPoint" />
          </mxGeometry>
        </mxCell>
        <mxCell id="pSaJIkGriDd8Vi6PSLmC-84" value="" style="endArrow=none;html=1;rounded=0;exitX=1;exitY=0.5;exitDx=0;exitDy=0;entryX=-0.001;entryY=0.021;entryDx=0;entryDy=0;entryPerimeter=0;" parent="1" source="pSaJIkGriDd8Vi6PSLmC-82" edge="1">
          <mxGeometry width="50" height="50" relative="1" as="geometry">
            <mxPoint x="310" y="190" as="sourcePoint" />
            <mxPoint x="390" y="140" as="targetPoint" />
          </mxGeometry>
        </mxCell>
        <mxCell id="pSaJIkGriDd8Vi6PSLmC-85" value="+5V" style="edgeLabel;html=1;align=center;verticalAlign=middle;resizable=0;points=[];" parent="pSaJIkGriDd8Vi6PSLmC-84" vertex="1" connectable="0">
          <mxGeometry x="-0.0803" relative="1" as="geometry">
            <mxPoint as="offset" />
          </mxGeometry>
        </mxCell>
        <mxCell id="pSaJIkGriDd8Vi6PSLmC-86" value="" style="endArrow=none;html=1;rounded=0;exitX=1;exitY=0.5;exitDx=0;exitDy=0;" parent="1" edge="1">
          <mxGeometry width="50" height="50" relative="1" as="geometry">
            <mxPoint x="180" y="160" as="sourcePoint" />
            <mxPoint x="390" y="160" as="targetPoint" />
          </mxGeometry>
        </mxCell>
        <mxCell id="pSaJIkGriDd8Vi6PSLmC-87" value="GND" style="edgeLabel;html=1;align=center;verticalAlign=middle;resizable=0;points=[];" parent="pSaJIkGriDd8Vi6PSLmC-86" vertex="1" connectable="0">
          <mxGeometry x="-0.1414" relative="1" as="geometry">
            <mxPoint x="10" as="offset" />
          </mxGeometry>
        </mxCell>
        <mxCell id="pSaJIkGriDd8Vi6PSLmC-88" value="" style="edgeStyle=orthogonalEdgeStyle;rounded=0;orthogonalLoop=1;jettySize=auto;html=1;entryX=0;entryY=0.106;entryDx=0;entryDy=0;entryPerimeter=0;" parent="1" edge="1">
          <mxGeometry relative="1" as="geometry">
            <mxPoint x="180" y="260" as="sourcePoint" />
            <mxPoint x="390" y="260" as="targetPoint" />
            <Array as="points">
              <mxPoint x="220" y="260" />
            </Array>
          </mxGeometry>
        </mxCell>
        <mxCell id="pSaJIkGriDd8Vi6PSLmC-89" value="Vs" style="edgeLabel;html=1;align=center;verticalAlign=middle;resizable=0;points=[];" parent="pSaJIkGriDd8Vi6PSLmC-88" vertex="1" connectable="0">
          <mxGeometry x="-0.1833" y="1" relative="1" as="geometry">
            <mxPoint x="9" as="offset" />
          </mxGeometry>
        </mxCell>
        <mxCell id="pSaJIkGriDd8Vi6PSLmC-90" value="Fuse" style="rounded=0;whiteSpace=wrap;html=1;" parent="1" vertex="1">
          <mxGeometry x="260" y="210" width="50" height="20" as="geometry" />
        </mxCell>
        <mxCell id="pSaJIkGriDd8Vi6PSLmC-91" value="" style="endArrow=none;html=1;rounded=0;entryX=0;entryY=0.5;entryDx=0;entryDy=0;exitX=0.998;exitY=0.17;exitDx=0;exitDy=0;exitPerimeter=0;" parent="1" target="pSaJIkGriDd8Vi6PSLmC-90" edge="1">
          <mxGeometry width="50" height="50" relative="1" as="geometry">
            <mxPoint x="180" y="220" as="sourcePoint" />
            <mxPoint x="330" y="380" as="targetPoint" />
          </mxGeometry>
        </mxCell>
        <mxCell id="pSaJIkGriDd8Vi6PSLmC-92" value="" style="endArrow=none;html=1;rounded=0;exitX=1;exitY=0.5;exitDx=0;exitDy=0;entryX=-0.001;entryY=0.021;entryDx=0;entryDy=0;entryPerimeter=0;" parent="1" source="pSaJIkGriDd8Vi6PSLmC-90" edge="1">
          <mxGeometry width="50" height="50" relative="1" as="geometry">
            <mxPoint x="310" y="270" as="sourcePoint" />
            <mxPoint x="390" y="220" as="targetPoint" />
          </mxGeometry>
        </mxCell>
        <mxCell id="pSaJIkGriDd8Vi6PSLmC-93" value="+5V" style="edgeLabel;html=1;align=center;verticalAlign=middle;resizable=0;points=[];" parent="pSaJIkGriDd8Vi6PSLmC-92" vertex="1" connectable="0">
          <mxGeometry x="-0.0803" relative="1" as="geometry">
            <mxPoint as="offset" />
          </mxGeometry>
        </mxCell>
        <mxCell id="pSaJIkGriDd8Vi6PSLmC-94" value="" style="endArrow=none;html=1;rounded=0;exitX=1;exitY=0.5;exitDx=0;exitDy=0;" parent="1" edge="1">
          <mxGeometry width="50" height="50" relative="1" as="geometry">
            <mxPoint x="180" y="240" as="sourcePoint" />
            <mxPoint x="390" y="240" as="targetPoint" />
          </mxGeometry>
        </mxCell>
        <mxCell id="pSaJIkGriDd8Vi6PSLmC-95" value="GND" style="edgeLabel;html=1;align=center;verticalAlign=middle;resizable=0;points=[];" parent="pSaJIkGriDd8Vi6PSLmC-94" vertex="1" connectable="0">
          <mxGeometry x="-0.1414" relative="1" as="geometry">
            <mxPoint x="10" as="offset" />
          </mxGeometry>
        </mxCell>
        <mxCell id="pSaJIkGriDd8Vi6PSLmC-97" value="" style="endArrow=none;html=1;rounded=0;exitX=0.998;exitY=0.17;exitDx=0;exitDy=0;exitPerimeter=0;" parent="1" edge="1">
          <mxGeometry width="50" height="50" relative="1" as="geometry">
            <mxPoint x="180" y="300" as="sourcePoint" />
            <mxPoint x="390" y="300" as="targetPoint" />
          </mxGeometry>
        </mxCell>
        <mxCell id="pSaJIkGriDd8Vi6PSLmC-98" value="+5V" style="edgeLabel;html=1;align=center;verticalAlign=middle;resizable=0;points=[];" parent="pSaJIkGriDd8Vi6PSLmC-97" vertex="1" connectable="0">
          <mxGeometry x="-0.063" relative="1" as="geometry">
            <mxPoint as="offset" />
          </mxGeometry>
        </mxCell>
        <mxCell id="pSaJIkGriDd8Vi6PSLmC-100" value="" style="endArrow=none;html=1;rounded=0;exitX=0.998;exitY=0.17;exitDx=0;exitDy=0;exitPerimeter=0;" parent="1" edge="1">
          <mxGeometry width="50" height="50" relative="1" as="geometry">
            <mxPoint x="180" y="319.86" as="sourcePoint" />
            <mxPoint x="390" y="319.86" as="targetPoint" />
          </mxGeometry>
        </mxCell>
        <mxCell id="pSaJIkGriDd8Vi6PSLmC-101" value="GND" style="edgeLabel;html=1;align=center;verticalAlign=middle;resizable=0;points=[];" parent="pSaJIkGriDd8Vi6PSLmC-100" vertex="1" connectable="0">
          <mxGeometry x="-0.063" relative="1" as="geometry">
            <mxPoint x="7" as="offset" />
          </mxGeometry>
        </mxCell>
        <mxCell id="pSaJIkGriDd8Vi6PSLmC-103" value="" style="endArrow=none;html=1;rounded=0;exitX=1;exitY=0.5;exitDx=0;exitDy=0;entryX=-0.001;entryY=0.021;entryDx=0;entryDy=0;entryPerimeter=0;" parent="1" edge="1">
          <mxGeometry width="50" height="50" relative="1" as="geometry">
            <mxPoint x="510" y="90" as="sourcePoint" />
            <mxPoint x="590" y="90" as="targetPoint" />
          </mxGeometry>
        </mxCell>
        <mxCell id="pSaJIkGriDd8Vi6PSLmC-104" value="+5V" style="edgeLabel;html=1;align=center;verticalAlign=middle;resizable=0;points=[];" parent="pSaJIkGriDd8Vi6PSLmC-103" vertex="1" connectable="0">
          <mxGeometry x="-0.0803" relative="1" as="geometry">
            <mxPoint as="offset" />
          </mxGeometry>
        </mxCell>
        <mxCell id="pSaJIkGriDd8Vi6PSLmC-105" value="" style="pointerEvents=1;verticalLabelPosition=bottom;shadow=0;dashed=0;align=center;html=1;verticalAlign=top;shape=mxgraph.electrical.resistors.resistor_2;rotation=90;" parent="1" vertex="1">
          <mxGeometry x="550" y="120" width="80" height="20" as="geometry" />
        </mxCell>
        <mxCell id="pSaJIkGriDd8Vi6PSLmC-106" value="" style="endArrow=none;html=1;rounded=0;entryX=1;entryY=0.5;entryDx=0;entryDy=0;entryPerimeter=0;" parent="1" target="pSaJIkGriDd8Vi6PSLmC-105" edge="1">
          <mxGeometry width="50" height="50" relative="1" as="geometry">
            <mxPoint x="610" y="200" as="sourcePoint" />
            <mxPoint x="650" y="150" as="targetPoint" />
          </mxGeometry>
        </mxCell>
        <mxCell id="pSaJIkGriDd8Vi6PSLmC-107" value="" style="endArrow=none;html=1;rounded=0;" parent="1" edge="1">
          <mxGeometry width="50" height="50" relative="1" as="geometry">
            <mxPoint x="590" y="240" as="sourcePoint" />
            <mxPoint x="590" y="200" as="targetPoint" />
          </mxGeometry>
        </mxCell>
        <mxCell id="pSaJIkGriDd8Vi6PSLmC-109" value="" style="endArrow=none;dashed=1;html=1;dashPattern=1 3;strokeWidth=2;rounded=0;" parent="1" edge="1">
          <mxGeometry width="50" height="50" relative="1" as="geometry">
            <mxPoint x="610" y="194.96" as="sourcePoint" />
            <mxPoint x="630" y="194.96" as="targetPoint" />
          </mxGeometry>
        </mxCell>
        <mxCell id="pSaJIkGriDd8Vi6PSLmC-110" value="" style="verticalLabelPosition=bottom;verticalAlign=top;html=1;shape=mxgraph.basic.half_circle;rotation=-90;" parent="1" vertex="1">
          <mxGeometry x="620" y="190" width="20" height="10" as="geometry" />
        </mxCell>
        <mxCell id="pSaJIkGriDd8Vi6PSLmC-116" value="Shutdown Setas" style="text;html=1;strokeColor=none;fillColor=none;align=center;verticalAlign=middle;whiteSpace=wrap;rounded=0;" parent="1" vertex="1">
          <mxGeometry x="640" y="180" width="110" height="30" as="geometry" />
        </mxCell>
        <mxCell id="gK3uB9BPYiLCSPlVEp5--1" value="R" style="text;html=1;strokeColor=none;fillColor=none;align=center;verticalAlign=middle;whiteSpace=wrap;rounded=0;" vertex="1" parent="1">
          <mxGeometry x="590" y="110" width="60" height="30" as="geometry" />
        </mxCell>
        <mxCell id="gK3uB9BPYiLCSPlVEp5--2" value="GND" style="pointerEvents=1;verticalLabelPosition=bottom;shadow=0;dashed=0;align=center;html=1;verticalAlign=top;shape=mxgraph.electrical.signal_sources.signal_ground;" vertex="1" parent="1">
          <mxGeometry x="575" y="240" width="30" height="20" as="geometry" />
        </mxCell>
        <mxCell id="gK3uB9BPYiLCSPlVEp5--4" value="" style="endArrow=none;html=1;rounded=0;entryX=0.892;entryY=0.483;entryDx=0;entryDy=0;entryPerimeter=0;exitX=0.999;exitY=0.237;exitDx=0;exitDy=0;exitPerimeter=0;" edge="1" parent="1" source="pSaJIkGriDd8Vi6PSLmC-53" target="pSaJIkGriDd8Vi6PSLmC-105">
          <mxGeometry width="50" height="50" relative="1" as="geometry">
            <mxPoint x="480" y="210" as="sourcePoint" />
            <mxPoint x="530" y="160" as="targetPoint" />
          </mxGeometry>
        </mxCell>
        <mxCell id="gK3uB9BPYiLCSPlVEp5--6" value="DI" style="edgeLabel;html=1;align=center;verticalAlign=middle;resizable=0;points=[];" vertex="1" connectable="0" parent="gK3uB9BPYiLCSPlVEp5--4">
          <mxGeometry x="0.0401" relative="1" as="geometry">
            <mxPoint as="offset" />
          </mxGeometry>
        </mxCell>
      </root>
    </mxGraphModel>
  </diagram>
</mxfile>
